<svg xmlns="http://www.w3.org/2000/svg" viewBox="0 0 240 240"><circle cx="120" cy="120" r="120" fill="#37aee2"/><circle cx="120" cy="120" r="110" fill="#fff"/><path d="M49.6 120.6c0-2.2 1.7-4.1 4.1-4.1h132.6c2.2 0 4.1 1.7 4.1 4.1v.1c0 2.2-1.7 4.1-4.1 4.1H53.7c-2.2 0-4.1-1.7-4.1-4.1v-.1z" fill="#c8daea"/><path d="M164.7 90.7l-19.2 81.2c-1.4 5.7-5.2 7.1-10.5 4.4l-29-21-14 13.5c-1.5 1.5-2.7 2.7-5.5 2.7l2-28.2 51.3-46.3c2.2-2-0.5-3.1-3.4-1.1l-63.4 40-27.3-8.5c-5.9-1.8-6-5.9 1.2-8.7l106.5-41.1c4.9-1.8 9.2 1.2 7.6 8.6z" fill="#039be5"/></svg>